<svg id="Capa_1" enable-background="new 0 0 512 512" height="512" viewBox="0 0 512 512" width="512" xmlns="http://www.w3.org/2000/svg"><g><g><g><path d="m425.406 426.314c0-6.713-5.442-12.155-12.155-12.155h-9.778c-3.652-14.56-9.389-28.289-16.874-40.847l6.969-6.993c4.727-4.743 4.727-12.416 0-17.16l-35.498-35.623c-4.75-4.767-12.47-4.767-17.22 0l-6.909 6.933c-12.515-7.511-26.196-13.268-40.705-16.933v-9.855c0-6.713-5.442-12.155-12.155-12.155h-50.16c-6.713 0-12.155 5.442-12.155 12.155v9.855c-14.509 3.665-28.19 9.422-40.705 16.933l-6.908-6.933c-4.75-4.767-12.47-4.767-17.22 0l-35.498 35.622c-4.727 4.743-4.727 12.417 0 17.16l6.969 6.993c-7.485 12.559-13.222 26.287-16.874 40.847h-9.778c-6.713 0-12.155 5.442-12.155 12.155v40.776h84.673c-.915-5.049-1.393-10.251-1.393-15.565 0-47.733 38.56-86.428 86.127-86.428s86.127 38.695 86.127 86.428c0 5.314-.478 10.516-1.394 15.565h84.673v-40.775z" fill="#b2f0fb"/></g></g><g><g fill="#020288"><path d="m476.566 34.91h-441.132c-19.539 0-35.434 16.009-35.434 35.688v370.804c0 19.679 15.895 35.688 35.434 35.688h441.132c19.539 0 35.434-16.01 35.434-35.688v-370.804c0-19.679-15.896-35.688-35.434-35.688zm-456.566 35.688c0-8.651 6.924-15.688 15.434-15.688h441.132c8.51 0 15.434 7.038 15.434 15.688v39.765h-472zm160.072 386.492c-.132-1.851-.199-3.708-.199-5.565 0-42.143 34.15-76.428 76.127-76.428s76.127 34.285 76.127 76.428c0 1.857-.067 3.715-.2 5.565zm311.928-15.688c0 8.65-6.924 15.688-15.434 15.688h-124.598c.106-1.853.159-3.71.159-5.565 0-53.17-43.123-96.428-96.127-96.428s-96.127 43.257-96.127 96.428c0 1.856.053 3.712.159 5.565h-124.598c-8.51 0-15.434-7.038-15.434-15.688v-311.039h472z"/><path d="m314.132 72.637h-13.787c-5.523 0-10 4.477-10 10s4.477 10 10 10h13.787c5.523 0 10-4.477 10-10s-4.477-10-10-10z"/><path d="m371.195 72.637h-13.787c-5.523 0-10 4.477-10 10s4.477 10 10 10h13.787c5.523 0 10-4.477 10-10s-4.477-10-10-10z"/><path d="m99.221 238.29h313.558c5.523 0 10-4.477 10-10v-50.33c0-5.523-4.477-10-10-10h-313.558c-5.523 0-10 4.477-10 10v50.33c0 5.524 4.477 10 10 10zm10-50.329h293.558v30.33h-293.558z"/></g><g><path d="m428.259 92.637h-13.787c-5.523 0-10-4.477-10-10s4.477-10 10-10h13.787c5.523 0 10 4.477 10 10s-4.477 10-10 10z" fill="#020288"/></g></g></g></svg>