
<svg height="409.6pt" viewBox="0 0 409.6 409.6" width="409.6pt" xmlns="http://www.w3.org/2000/svg"><path d="m321.121094 201.386719c0 62.355469-50.550782 112.90625-112.90625 112.90625-62.359375 0-112.90625-50.550781-112.90625-112.90625s50.546875-112.90625 112.90625-112.90625c62.355468 0 112.90625 50.550781 112.90625 112.90625zm0 0" fill="#feda38"/><path d="m208.214844 321.121094c-66.023438 0-119.734375-53.714844-119.734375-119.734375s53.710937-119.734375 119.734375-119.734375c66.019531 0 119.730468 53.714844 119.730468 119.734375s-53.710937 119.734375-119.730468 119.734375zm0-225.8125c-58.492188 0-106.082032 47.585937-106.082032 106.078125 0 58.492187 47.589844 106.078125 106.082032 106.078125 58.492187 0 106.078125-47.585938 106.078125-106.078125 0-58.492188-47.585938-106.078125-106.078125-106.078125zm0 0"/><path d="m280.941406 247.445312c-5.195312 11.308594-14.214844 20.496094-25.410156 25.898438" fill="#fff"/><path d="m255.539062 280.167969c-2.539062 0-4.980468-1.417969-6.152343-3.859375-1.640625-3.390625-.214844-7.476563 3.179687-9.113282 9.765625-4.71875 17.640625-12.742187 22.164063-22.597656 1.574219-3.433594 5.636719-4.9375 9.054687-3.355468 3.429688 1.574218 4.933594 5.628906 3.363282 9.054687-5.855469 12.734375-16.027344 23.101563-28.648438 29.191406-.953125.464844-1.96875.679688-2.960938.679688zm0 0" fill="#fff"/><path d="m204.800781 68.265625c-3.773437 0-6.828125-3.054687-6.828125-6.824219v-54.613281c0-3.773437 3.054688-6.828125 6.828125-6.828125 3.773438 0 6.824219 3.054688 6.824219 6.828125v54.613281c0 3.769532-3.050781 6.824219-6.824219 6.824219zm0 0"/><path d="m204.800781 409.601562c-3.773437 0-6.828125-3.058593-6.828125-6.828124v-54.613282c0-3.769531 3.054688-6.828125 6.828125-6.828125 3.773438 0 6.824219 3.058594 6.824219 6.828125v54.613282c0 3.769531-3.050781 6.828124-6.824219 6.828124zm0 0"/><path d="m61.441406 211.625h-54.613281c-3.773437 0-6.828125-3.054688-6.828125-6.824219s3.054688-6.828125 6.828125-6.828125h54.613281c3.773438 0 6.824219 3.058594 6.824219 6.828125s-3.050781 6.824219-6.824219 6.824219zm0 0"/><path d="m402.773438 211.625h-54.613282c-3.773437 0-6.828125-3.054688-6.828125-6.824219s3.054688-6.828125 6.828125-6.828125h54.613282c3.773437 0 6.828124 3.058594 6.828124 6.828125s-3.054687 6.824219-6.828124 6.824219zm0 0"/><path d="m341.140625 348.34375-37.613281-39.597656" fill="#feda38"/><path d="m341.140625 355.167969c-1.808594 0-3.605469-.710938-4.945313-2.125l-37.613281-39.597657c-2.601562-2.734374-2.488281-7.050781.246094-9.648437 2.734375-2.59375 7.0625-2.484375 9.648437.25l37.613282 39.59375c2.597656 2.734375 2.484375 7.054687-.25 9.652344-1.320313 1.253906-3.011719 1.875-4.699219 1.875zm0 0"/><path d="m106.070312 100.855469-37.609374-39.597657" fill="#feda38"/><path d="m106.074219 107.679688c-1.808594 0-3.609375-.710938-4.949219-2.125l-37.613281-39.597657c-2.597657-2.734375-2.484375-7.054687.25-9.652343 2.734375-2.589844 7.058593-2.476563 9.644531.25l37.613281 39.597656c2.601563 2.734375 2.488281 7.054687-.246093 9.652344-1.320313 1.253906-3.011719 1.875-4.699219 1.875zm0 0"/><path d="m341.140625 61.257812-37.613281 39.597657" fill="#feda38"/><path d="m303.527344 107.679688c-1.6875 0-3.378906-.621094-4.699219-1.875-2.734375-2.597657-2.847656-6.917969-.25-9.652344l37.613281-39.59375c2.59375-2.734375 6.914063-2.84375 9.648438-.25s2.847656 6.917968.246094 9.648437l-37.613282 39.597657c-1.339844 1.414062-3.140625 2.125-4.945312 2.125zm0 0"/><path d="m106.070312 308.746094-37.609374 39.597656" fill="#feda38"/><path d="m68.460938 355.167969c-1.6875 0-3.378907-.621094-4.703126-1.875-2.734374-2.597657-2.84375-6.917969-.246093-9.652344l37.613281-39.59375c2.59375-2.734375 6.914062-2.847656 9.644531-.25 2.734375 2.597656 2.847657 6.917969.25 9.648437l-37.613281 39.597657c-1.339844 1.414062-3.140625 2.125-4.945312 2.125zm0 0"/><path d="m225.28125 187.734375c0-13.195313 10.695312-23.894531 23.890625-23.894531 13.199219 0 23.894531 10.699218 23.894531 23.894531" fill="#feda38"/><path d="m273.066406 194.558594c-3.773437 0-6.828125-3.054688-6.828125-6.824219 0-9.410156-7.652343-17.066406-17.066406-17.066406s-17.066406 7.65625-17.066406 17.066406c0 3.769531-3.050781 6.824219-6.824219 6.824219s-6.828125-3.054688-6.828125-6.824219c0-16.941406 13.78125-30.722656 30.71875-30.722656 16.941406 0 30.722656 13.78125 30.722656 30.722656 0 3.769531-3.054687 6.824219-6.828125 6.824219zm0 0"/><path d="m232.105469 225.28125c0 13.195312-10.695313 23.890625-23.890625 23.890625-13.199219 0-23.894532-10.695313-23.894532-23.890625" fill="#feda38"/><path d="m208.214844 256c-16.941406 0-30.722656-13.78125-30.722656-30.71875 0-3.769531 3.054687-6.828125 6.828124-6.828125 3.773438 0 6.828126 3.058594 6.828126 6.828125 0 9.410156 7.652343 17.066406 17.066406 17.066406 9.414062 0 17.066406-7.65625 17.066406-17.066406 0-3.769531 3.050781-6.828125 6.824219-6.828125 3.773437 0 6.828125 3.058594 6.828125 6.828125 0 16.9375-13.78125 30.71875-30.71875 30.71875zm0 0"/><path d="m143.359375 187.734375c0-13.195313 10.699219-23.894531 23.894531-23.894531 13.195313 0 23.894532 10.699218 23.894532 23.894531" fill="#feda38"/><path d="m191.148438 194.558594c-3.773438 0-6.828126-3.054688-6.828126-6.824219 0-9.410156-7.652343-17.066406-17.066406-17.066406-9.414062 0-17.066406 7.65625-17.066406 17.066406 0 3.769531-3.054688 6.824219-6.828125 6.824219s-6.824219-3.054688-6.824219-6.824219c0-16.941406 13.777344-30.722656 30.71875-30.722656s30.71875 13.78125 30.71875 30.722656c0 3.769531-3.050781 6.824219-6.824218 6.824219zm0 0"/></svg>