<svg id="Capa_1" enable-background="new 0 0 512 512" height="512" viewBox="0 0 512 512" width="512" xmlns="http://www.w3.org/2000/svg"><g><path d="m210.551 137.012c-58.62 0-106.311 47.752-106.311 106.447s47.691 106.447 106.311 106.447 106.311-47.752 106.311-106.447-47.69-106.447-106.311-106.447zm0 165.714c-32.69 0-59.191-26.535-59.191-59.267s26.501-59.267 59.191-59.267 59.191 26.535 59.191 59.267-26.5 59.267-59.191 59.267z" fill="#ffbdbc"/></g><g><path d="m497.081 242.33 13.944-29.22c1.479-3.098 1.264-6.738-.567-9.642-1.832-2.903-5.025-4.665-8.458-4.665h-71.602c-3.679 0-7.061 2.02-8.805 5.259l-3.154 5.857c-16.091-100.357-103.188-177.268-207.888-177.268-116.098 0-210.551 94.568-210.551 210.808 0 78.778 43.382 147.601 107.483 183.781l-34.999 35.043c-3.903 3.908-3.898 10.239.009 14.142 1.952 1.95 4.509 2.924 7.066 2.924 2.561 0 5.123-.978 7.076-2.934l39.7-39.75c25.803 11.318 54.29 17.602 84.216 17.602s58.414-6.284 84.217-17.602l39.699 39.75c1.953 1.956 4.514 2.934 7.075 2.934 2.557 0 5.114-.975 7.066-2.924 3.908-3.903 3.912-10.234.009-14.142l-34.997-35.043c55.31-31.218 95.194-86.741 105.093-151.991l2.881 5.35c1.744 3.239 5.126 5.259 8.805 5.259h71.601c3.433 0 6.626-1.761 8.458-4.665 1.831-2.904 2.046-6.544.567-9.642zm-286.53 191.937c-105.07 0-190.551-85.596-190.551-190.808s85.481-190.808 190.551-190.808c101.339 0 184.456 79.626 190.231 179.679h-27.174c-5.733-85.054-76.675-152.498-163.056-152.498-90.116 0-163.431 73.403-163.431 163.628s73.315 163.627 163.431 163.627c87.144 0 158.576-68.641 163.193-154.757h27.154c-4.644 101.11-88.247 181.937-190.348 181.937zm68.298-201.937c-5.334-32.922-33.93-58.137-68.298-58.137-38.152 0-69.191 31.073-69.191 69.267s31.039 69.267 69.191 69.267c35.15 0 64.263-26.376 68.626-60.396h74.534c-4.591 75.081-67.046 134.757-143.16 134.757-79.088 0-143.431-64.431-143.431-143.627 0-79.197 64.343-143.628 143.431-143.628 75.349 0 137.313 58.482 143.005 132.498h-74.707zm-68.298 20h48.391c-4.183 22.947-24.29 40.396-48.391 40.396-27.124 0-49.191-22.101-49.191-49.267s22.067-49.267 49.191-49.267c23.304 0 42.874 16.314 47.925 38.137h-47.925c-5.523 0-10 4.477-10 10 0 5.524 4.477 10.001 10 10.001zm266.425-5.694 9.172 19.221h-49.776l-12.669-23.527 12.669-23.527h49.776l-9.172 19.22c-1.3 2.724-1.3 5.889 0 8.613z" fill="#020288"/></g></svg>