<svg id="Capa_1" enable-background="new 0 0 512 512" height="512" viewBox="0 0 512 512" width="512" xmlns="http://www.w3.org/2000/svg"><g><g><path d="m342.518 147.333h-254.08c0 18.173-14.74 32.905-32.922 32.905v87.63c18.182 0 32.922 14.732 32.922 32.905h254.08c0-18.173 14.74-32.905 32.922-32.905v-87.63c-18.182 0-32.922-14.732-32.922-32.905z" fill="#a4fcc4"/></g><g fill="#020288"><path d="m482.734 262.453 3.641-3.637c3.907-3.903 3.91-10.235.008-14.143-3.903-3.907-10.235-3.911-14.143-.008l-5.786 5.78c-5.999-3.472-12.429-6.28-19.188-8.322 1.995-3.964 3.119-8.438 3.119-13.169 0-12.708-8.109-23.56-19.429-27.659v-83.367c0-14.385-11.707-26.088-26.098-26.088h-378.761c-14.39.001-26.097 11.704-26.097 26.09v212.246c0 14.386 11.707 26.089 26.097 26.089h307.929c11.558 36.979 46.157 63.895 86.931 63.895 50.201 0 91.043-40.802 91.043-90.953 0-26.355-11.278-50.128-29.266-66.754zm-61.777-24.201c-.458 0-.915.004-1.371.01-4.552-.664-8.059-4.585-8.059-9.308 0-5.188 4.23-9.407 9.43-9.407 5.199 0 9.429 4.22 9.429 9.407 0 4.723-3.506 8.644-8.058 9.308-.456-.006-.913-.01-1.371-.01zm-394.86 98.013c-3.362 0-6.097-2.731-6.097-6.089v-212.246c0-3.357 2.735-6.089 6.097-6.089h378.762c3.362 0 6.098 2.732 6.098 6.088v83.366c-11.32 4.099-19.43 14.95-19.43 27.659 0 4.731 1.124 9.205 3.12 13.169-6.759 2.042-13.189 4.85-19.188 8.321l-5.786-5.78c-3.907-3.903-10.239-3.9-14.143.008-3.902 3.907-3.899 10.239.008 14.143l3.641 3.637c-17.988 16.627-29.266 40.399-29.266 66.753 0 2.375.092 4.729.272 7.059h-304.088zm394.86 63.894c-39.174 0-71.044-31.829-71.044-70.953 0-38.406 30.711-69.783 68.896-70.922.71.051 1.426.078 2.148.078.723 0 1.439-.027 2.148-.078 38.184 1.139 68.895 32.516 68.895 70.922 0 39.124-31.87 70.953-71.043 70.953z"/><path d="m443.774 322.716h-12.817v-17.577c0-5.522-4.478-10-10-10s-10 4.478-10 10v27.577c0 5.523 4.478 10 10 10h22.817c5.522 0 10-4.477 10-10s-4.477-10-10-10z"/></g></g></svg>